# xmcd
#
# Track frame offsets: 
#        183
#        20508
#        43008
#        58833
#        81183
#        99858
#        117033
#        130908
#        141783
#        150783
#        165108
#        179920
#        199308
#
# Disc length: 2800 seconds
#
# Revision: 2
# Processed by: cddbd v1.5.2PL0 Copyright (c) Steve Scherf et al.
# Submitted via: ExactAudioCopy v0.99pb3
#
DISCID=a40aee0d
DTITLE=Various Artist - Giants Of Guitar
DYEAR=1900
DGENRE=Rock
TTITLE0=Eric Clapton - Big Boss Man
TTITLE1=Eric Clapton - The First Time I Met The Blues
TTITLE2=Eric Clapton - Louise
TTITLE3=Eric Clapton - Five Long Years
TTITLE4=Eric Clapton - They Call It Stormy Monday
TTITLE5=Eric Clapton - Early In The Morning
TTITLE6=Jeff Beck - Jeff's Blues
TTITLE7=Jeff Beck - Shapes Of Things
TTITLE8=Jeff Beck - I Ain't Got You
TTITLE9=Jeff Beck - What Do You Want
TTITLE10=Jeff Beck - Mister You're A Better Man Than I
TTITLE11=Jeff Beck - New York City Blues
TTITLE12=Jeff Beck - Someone To Love
EXTD=
EXTT0=
EXTT1=
EXTT2=
EXTT3=
EXTT4=
EXTT5=
EXTT6=
EXTT7=
EXTT8=
EXTT9=
EXTT10=
EXTT11=
EXTT12=
PLAYORDER=
